# xmcd
#
# Track frame offsets:
#	150
#	15764
#	30162
#	49148
#	68655
#	83635
#	100531
#	115004
#	129928
#	145949
#	156017
#	173146
#	191235
#
# Disc length: 2795 seconds
#
# Revision: 1
# Processed by: cddbd v1.5.2PL0 Copyright (c) Steve Scherf et al.
# Submitted via: audiograbber 1.80
#
DISCID=910ae90d
DTITLE=Danny June Smith - Made In June
DYEAR=1900
DGENRE=
TTITLE0=The Beat of your Heart
TTITLE1=Let's sing this Song together
TTITLE2=Fairytale
TTITLE3=Until you
TTITLE4=Made in June
TTITLE5=Just to leave me be
TTITLE6=Transitional Woman
TTITLE7=We were meant to be
TTITLE8=Spanish Curtains
TTITLE9=I hate you
TTITLE10=In the End
TTITLE11=Don't you waste you Heart on me
TTITLE12=Weisst Du...
EXTD=
EXTT0=
EXTT1=
EXTT2=
EXTT3=
EXTT4=
EXTT5=
EXTT6=
EXTT7=
EXTT8=
EXTT9=
EXTT10=
EXTT11=
EXTT12=
PLAYORDER=
